<mxfile host="app.diagrams.net" modified="2022-02-16T07:53:59.807Z" agent="5.0 (Macintosh)" etag="uTOEUjk5ccuKRjBtTTe8" version="16.4.11" type="github">
  <diagram id="nO3Y4eijYxibHjGsDATa" name="Page-1">
    <mxGraphModel dx="1233" dy="809" grid="1" gridSize="10" guides="1" tooltips="1" connect="1" arrows="1" fold="1" page="1" pageScale="1" pageWidth="1600" pageHeight="900" math="0" shadow="0">
      <root>
        <mxCell id="0" />
        <mxCell id="1" parent="0" />
        <mxCell id="I_AKY_xcxnq37AstKkpZ-37" value="" style="endArrow=none;dashed=1;html=1;rounded=0;entryX=0.5;entryY=1;entryDx=0;entryDy=0;" edge="1" parent="1">
          <mxGeometry width="50" height="50" relative="1" as="geometry">
            <mxPoint x="659.5" y="900" as="sourcePoint" />
            <mxPoint x="659.5" y="120" as="targetPoint" />
          </mxGeometry>
        </mxCell>
        <mxCell id="I_AKY_xcxnq37AstKkpZ-36" value="" style="endArrow=none;dashed=1;html=1;rounded=0;entryX=0.5;entryY=1;entryDx=0;entryDy=0;startArrow=none;" edge="1" parent="1" source="I_AKY_xcxnq37AstKkpZ-40">
          <mxGeometry width="50" height="50" relative="1" as="geometry">
            <mxPoint x="499.5" y="900" as="sourcePoint" />
            <mxPoint x="499.5" y="120" as="targetPoint" />
          </mxGeometry>
        </mxCell>
        <mxCell id="I_AKY_xcxnq37AstKkpZ-1" value="AkkaRpcActor" style="rounded=1;whiteSpace=wrap;html=1;fontSize=14;" vertex="1" parent="1">
          <mxGeometry x="80" y="80" width="120" height="40" as="geometry" />
        </mxCell>
        <mxCell id="I_AKY_xcxnq37AstKkpZ-2" value="" style="endArrow=none;dashed=1;html=1;rounded=0;entryX=0.5;entryY=1;entryDx=0;entryDy=0;" edge="1" parent="1" target="I_AKY_xcxnq37AstKkpZ-1">
          <mxGeometry width="50" height="50" relative="1" as="geometry">
            <mxPoint x="140" y="900" as="sourcePoint" />
            <mxPoint x="111" y="120" as="targetPoint" />
          </mxGeometry>
        </mxCell>
        <mxCell id="I_AKY_xcxnq37AstKkpZ-16" style="rounded=0;orthogonalLoop=1;jettySize=auto;html=1;exitX=1;exitY=0.875;exitDx=0;exitDy=0;fontFamily=Helvetica;fontSize=10;fontColor=#000000;exitPerimeter=0;" edge="1" parent="1" source="I_AKY_xcxnq37AstKkpZ-3">
          <mxGeometry relative="1" as="geometry">
            <mxPoint x="320" y="210" as="targetPoint" />
          </mxGeometry>
        </mxCell>
        <mxCell id="I_AKY_xcxnq37AstKkpZ-18" value="&lt;pre&gt;&lt;font style=&quot;font-size: 10px&quot; face=&quot;Helvetica&quot;&gt;&lt;span style=&quot;background-color: rgb(255 , 255 , 255)&quot;&gt;internalCallOnStart&lt;/span&gt;&lt;/font&gt;&lt;/pre&gt;" style="edgeLabel;html=1;align=center;verticalAlign=middle;resizable=0;points=[];fontSize=10;fontFamily=Helvetica;fontColor=#000000;" vertex="1" connectable="0" parent="I_AKY_xcxnq37AstKkpZ-16">
          <mxGeometry x="-0.1176" y="-3" relative="1" as="geometry">
            <mxPoint as="offset" />
          </mxGeometry>
        </mxCell>
        <mxCell id="I_AKY_xcxnq37AstKkpZ-3" value="" style="rounded=1;whiteSpace=wrap;html=1;" vertex="1" parent="1">
          <mxGeometry x="130" y="140" width="20" height="80" as="geometry" />
        </mxCell>
        <mxCell id="I_AKY_xcxnq37AstKkpZ-4" value="" style="endArrow=classic;html=1;rounded=0;entryX=0;entryY=0.25;entryDx=0;entryDy=0;" edge="1" parent="1" target="I_AKY_xcxnq37AstKkpZ-3">
          <mxGeometry width="50" height="50" relative="1" as="geometry">
            <mxPoint x="20" y="160" as="sourcePoint" />
            <mxPoint x="130" y="160" as="targetPoint" />
          </mxGeometry>
        </mxCell>
        <mxCell id="I_AKY_xcxnq37AstKkpZ-5" value="&lt;div style=&quot;font-size: 10px&quot;&gt;&lt;span style=&quot;font-size: 10px&quot;&gt;ControlMessage&lt;/span&gt;&lt;/div&gt;" style="edgeLabel;html=1;align=center;verticalAlign=middle;resizable=0;points=[];fontSize=10;fontColor=#000000;fontFamily=Helvetica;labelBackgroundColor=default;" vertex="1" connectable="0" parent="I_AKY_xcxnq37AstKkpZ-4">
          <mxGeometry x="-0.1111" relative="1" as="geometry">
            <mxPoint as="offset" />
          </mxGeometry>
        </mxCell>
        <mxCell id="I_AKY_xcxnq37AstKkpZ-6" style="edgeStyle=orthogonalEdgeStyle;rounded=0;orthogonalLoop=1;jettySize=auto;html=1;exitX=1;exitY=0.25;exitDx=0;exitDy=0;entryX=1;entryY=0.75;entryDx=0;entryDy=0;fontFamily=Helvetica;fontSize=10;fontColor=#000000;" edge="1" parent="1" source="I_AKY_xcxnq37AstKkpZ-3" target="I_AKY_xcxnq37AstKkpZ-3">
          <mxGeometry relative="1" as="geometry">
            <Array as="points">
              <mxPoint x="210" y="160" />
              <mxPoint x="210" y="200" />
            </Array>
          </mxGeometry>
        </mxCell>
        <mxCell id="I_AKY_xcxnq37AstKkpZ-7" value="handleControlMessage" style="edgeLabel;html=1;align=center;verticalAlign=middle;resizable=0;points=[];fontSize=10;fontFamily=Helvetica;fontColor=#000000;" vertex="1" connectable="0" parent="I_AKY_xcxnq37AstKkpZ-6">
          <mxGeometry x="-0.04" relative="1" as="geometry">
            <mxPoint as="offset" />
          </mxGeometry>
        </mxCell>
        <mxCell id="I_AKY_xcxnq37AstKkpZ-8" value="JobMaster" style="rounded=1;whiteSpace=wrap;html=1;fontSize=14;" vertex="1" parent="1">
          <mxGeometry x="271" y="80" width="120" height="40" as="geometry" />
        </mxCell>
        <mxCell id="I_AKY_xcxnq37AstKkpZ-9" value="" style="endArrow=none;dashed=1;html=1;rounded=0;entryX=0.5;entryY=1;entryDx=0;entryDy=0;" edge="1" parent="1" target="I_AKY_xcxnq37AstKkpZ-8">
          <mxGeometry width="50" height="50" relative="1" as="geometry">
            <mxPoint x="331" y="900" as="sourcePoint" />
            <mxPoint x="302" y="120" as="targetPoint" />
          </mxGeometry>
        </mxCell>
        <mxCell id="I_AKY_xcxnq37AstKkpZ-31" style="rounded=0;orthogonalLoop=1;jettySize=auto;html=1;exitX=1;exitY=1;exitDx=0;exitDy=0;entryX=0;entryY=0.5;entryDx=0;entryDy=0;fontFamily=Helvetica;fontSize=10;fontColor=#000000;" edge="1" parent="1" source="I_AKY_xcxnq37AstKkpZ-10" target="I_AKY_xcxnq37AstKkpZ-24">
          <mxGeometry relative="1" as="geometry" />
        </mxCell>
        <mxCell id="I_AKY_xcxnq37AstKkpZ-32" value="&lt;pre style=&quot;font-size: 10px&quot;&gt;&lt;font face=&quot;Helvetica&quot;&gt;&lt;span style=&quot;font-size: 10px&quot;&gt;startScheduling&lt;/span&gt;&lt;/font&gt;&lt;/pre&gt;" style="edgeLabel;html=1;align=center;verticalAlign=middle;resizable=0;points=[];fontSize=10;fontFamily=Helvetica;fontColor=#000000;labelBackgroundColor=#FFFFFF;" vertex="1" connectable="0" parent="I_AKY_xcxnq37AstKkpZ-31">
          <mxGeometry x="-0.2617" y="-1" relative="1" as="geometry">
            <mxPoint as="offset" />
          </mxGeometry>
        </mxCell>
        <mxCell id="I_AKY_xcxnq37AstKkpZ-10" value="" style="rounded=1;whiteSpace=wrap;html=1;" vertex="1" parent="1">
          <mxGeometry x="321" y="194" width="20" height="80" as="geometry" />
        </mxCell>
        <mxCell id="I_AKY_xcxnq37AstKkpZ-17" style="edgeStyle=orthogonalEdgeStyle;rounded=0;orthogonalLoop=1;jettySize=auto;html=1;exitX=1;exitY=0.25;exitDx=0;exitDy=0;entryX=1;entryY=0.5;entryDx=0;entryDy=0;fontFamily=Helvetica;fontSize=10;fontColor=#000000;" edge="1" parent="1">
          <mxGeometry relative="1" as="geometry">
            <mxPoint x="341" y="209" as="sourcePoint" />
            <mxPoint x="341" y="229" as="targetPoint" />
            <Array as="points">
              <mxPoint x="400" y="209" />
              <mxPoint x="400" y="229" />
            </Array>
          </mxGeometry>
        </mxCell>
        <mxCell id="I_AKY_xcxnq37AstKkpZ-19" value="startJobMasterServices" style="edgeLabel;html=1;align=center;verticalAlign=middle;resizable=0;points=[];fontSize=10;fontFamily=Helvetica;fontColor=#000000;" vertex="1" connectable="0" parent="I_AKY_xcxnq37AstKkpZ-17">
          <mxGeometry x="0.029" y="-2" relative="1" as="geometry">
            <mxPoint as="offset" />
          </mxGeometry>
        </mxCell>
        <mxCell id="I_AKY_xcxnq37AstKkpZ-20" style="edgeStyle=orthogonalEdgeStyle;rounded=0;orthogonalLoop=1;jettySize=auto;html=1;exitX=1;exitY=0.25;exitDx=0;exitDy=0;entryX=1;entryY=0.5;entryDx=0;entryDy=0;fontFamily=Helvetica;fontSize=10;fontColor=#000000;" edge="1" parent="1">
          <mxGeometry relative="1" as="geometry">
            <mxPoint x="342" y="241" as="sourcePoint" />
            <mxPoint x="342" y="261" as="targetPoint" />
            <Array as="points">
              <mxPoint x="401" y="241" />
              <mxPoint x="401" y="261" />
            </Array>
          </mxGeometry>
        </mxCell>
        <mxCell id="I_AKY_xcxnq37AstKkpZ-21" value="startScheduling" style="edgeLabel;html=1;align=center;verticalAlign=middle;resizable=0;points=[];fontSize=10;fontFamily=Helvetica;fontColor=#000000;" vertex="1" connectable="0" parent="I_AKY_xcxnq37AstKkpZ-20">
          <mxGeometry x="0.029" y="-2" relative="1" as="geometry">
            <mxPoint as="offset" />
          </mxGeometry>
        </mxCell>
        <mxCell id="I_AKY_xcxnq37AstKkpZ-22" value="&lt;pre style=&quot;font-family: &amp;#34;jetbrains mono&amp;#34; , monospace ; font-size: 14px&quot;&gt;&lt;font style=&quot;font-size: 14px&quot;&gt;&lt;span style=&quot;background-color: rgb(255 , 255 , 255)&quot;&gt;Default&lt;br&gt;Scheduler&lt;/span&gt;&lt;/font&gt;&lt;/pre&gt;" style="rounded=1;whiteSpace=wrap;html=1;fontSize=16;" vertex="1" parent="1">
          <mxGeometry x="440" y="80" width="120" height="40" as="geometry" />
        </mxCell>
        <mxCell id="I_AKY_xcxnq37AstKkpZ-38" style="edgeStyle=none;rounded=0;orthogonalLoop=1;jettySize=auto;html=1;exitX=1;exitY=0.5;exitDx=0;exitDy=0;entryX=-0.15;entryY=0.113;entryDx=0;entryDy=0;fontFamily=Helvetica;fontSize=10;fontColor=#000000;entryPerimeter=0;" edge="1" parent="1" source="I_AKY_xcxnq37AstKkpZ-24" target="I_AKY_xcxnq37AstKkpZ-35">
          <mxGeometry relative="1" as="geometry" />
        </mxCell>
        <mxCell id="I_AKY_xcxnq37AstKkpZ-39" value="&lt;pre style=&quot;font-size: 10px&quot;&gt;&lt;font face=&quot;Helvetica&quot;&gt;&lt;span style=&quot;font-size: 10px&quot;&gt;startScheduling&lt;/span&gt;&lt;/font&gt;&lt;/pre&gt;" style="edgeLabel;html=1;align=center;verticalAlign=middle;resizable=0;points=[];fontSize=10;fontFamily=Helvetica;fontColor=#000000;labelBackgroundColor=#FFFFFF;" vertex="1" connectable="0" parent="I_AKY_xcxnq37AstKkpZ-38">
          <mxGeometry x="-0.2571" relative="1" as="geometry">
            <mxPoint as="offset" />
          </mxGeometry>
        </mxCell>
        <mxCell id="I_AKY_xcxnq37AstKkpZ-24" value="" style="rounded=1;whiteSpace=wrap;html=1;" vertex="1" parent="1">
          <mxGeometry x="490" y="260" width="20" height="30" as="geometry" />
        </mxCell>
        <mxCell id="I_AKY_xcxnq37AstKkpZ-33" value="&lt;div style=&quot;font-size: 14px&quot;&gt;&lt;font style=&quot;font-size: 14px&quot;&gt;PipelinedRegion&lt;/font&gt;&lt;/div&gt;&lt;div style=&quot;font-size: 14px&quot;&gt;&lt;font style=&quot;font-size: 14px&quot;&gt;SchedulingStrategy&lt;/font&gt;&lt;/div&gt;" style="rounded=1;html=1;fontSize=14;whiteSpace=wrap;" vertex="1" parent="1">
          <mxGeometry x="600" y="80" width="120" height="40" as="geometry" />
        </mxCell>
        <mxCell id="I_AKY_xcxnq37AstKkpZ-42" style="edgeStyle=orthogonalEdgeStyle;rounded=0;orthogonalLoop=1;jettySize=auto;html=1;exitX=0;exitY=0.75;exitDx=0;exitDy=0;entryX=1.15;entryY=0.14;entryDx=0;entryDy=0;entryPerimeter=0;fontFamily=Helvetica;fontSize=14;fontColor=#000000;" edge="1" parent="1" source="I_AKY_xcxnq37AstKkpZ-35" target="I_AKY_xcxnq37AstKkpZ-40">
          <mxGeometry relative="1" as="geometry" />
        </mxCell>
        <mxCell id="I_AKY_xcxnq37AstKkpZ-43" value="&lt;font style=&quot;font-size: 10px&quot;&gt;allocateSlotsAndDeploy&lt;/font&gt;" style="edgeLabel;html=1;align=center;verticalAlign=middle;resizable=0;points=[];fontSize=12;fontFamily=Helvetica;fontColor=#000000;" vertex="1" connectable="0" parent="I_AKY_xcxnq37AstKkpZ-42">
          <mxGeometry x="0.0698" y="-1" relative="1" as="geometry">
            <mxPoint as="offset" />
          </mxGeometry>
        </mxCell>
        <mxCell id="I_AKY_xcxnq37AstKkpZ-35" value="" style="rounded=1;whiteSpace=wrap;html=1;" vertex="1" parent="1">
          <mxGeometry x="650" y="268" width="20" height="62" as="geometry" />
        </mxCell>
        <mxCell id="I_AKY_xcxnq37AstKkpZ-51" style="rounded=0;orthogonalLoop=1;jettySize=auto;html=1;exitX=1;exitY=1;exitDx=0;exitDy=0;fontFamily=Helvetica;fontSize=10;fontColor=#000000;" edge="1" parent="1" target="I_AKY_xcxnq37AstKkpZ-50">
          <mxGeometry relative="1" as="geometry">
            <mxPoint x="510" y="397" as="sourcePoint" />
            <mxPoint x="850" y="398" as="targetPoint" />
          </mxGeometry>
        </mxCell>
        <mxCell id="I_AKY_xcxnq37AstKkpZ-53" value="&lt;div&gt;deploy&lt;/div&gt;" style="edgeLabel;html=1;align=center;verticalAlign=middle;resizable=0;points=[];fontSize=10;fontFamily=Helvetica;fontColor=#000000;" vertex="1" connectable="0" parent="I_AKY_xcxnq37AstKkpZ-51">
          <mxGeometry x="-0.1705" y="-3" relative="1" as="geometry">
            <mxPoint as="offset" />
          </mxGeometry>
        </mxCell>
        <mxCell id="I_AKY_xcxnq37AstKkpZ-40" value="" style="rounded=1;whiteSpace=wrap;html=1;" vertex="1" parent="1">
          <mxGeometry x="490" y="300" width="20" height="100" as="geometry" />
        </mxCell>
        <mxCell id="I_AKY_xcxnq37AstKkpZ-41" value="" style="endArrow=none;dashed=1;html=1;rounded=0;entryX=0.5;entryY=1;entryDx=0;entryDy=0;" edge="1" parent="1" target="I_AKY_xcxnq37AstKkpZ-40">
          <mxGeometry width="50" height="50" relative="1" as="geometry">
            <mxPoint x="499.5" y="900" as="sourcePoint" />
            <mxPoint x="499.5" y="120" as="targetPoint" />
          </mxGeometry>
        </mxCell>
        <mxCell id="I_AKY_xcxnq37AstKkpZ-44" style="edgeStyle=orthogonalEdgeStyle;rounded=0;orthogonalLoop=1;jettySize=auto;html=1;exitX=1;exitY=0.25;exitDx=0;exitDy=0;entryX=1;entryY=0.5;entryDx=0;entryDy=0;fontFamily=Helvetica;fontSize=10;fontColor=#000000;" edge="1" parent="1" source="I_AKY_xcxnq37AstKkpZ-40" target="I_AKY_xcxnq37AstKkpZ-40">
          <mxGeometry relative="1" as="geometry">
            <Array as="points">
              <mxPoint x="560" y="325" />
              <mxPoint x="560" y="350" />
            </Array>
          </mxGeometry>
        </mxCell>
        <mxCell id="I_AKY_xcxnq37AstKkpZ-45" value="allocateSlots" style="edgeLabel;html=1;align=center;verticalAlign=middle;resizable=0;points=[];fontSize=10;fontFamily=Helvetica;fontColor=#000000;" vertex="1" connectable="0" parent="I_AKY_xcxnq37AstKkpZ-44">
          <mxGeometry x="0.056" y="-2" relative="1" as="geometry">
            <mxPoint as="offset" />
          </mxGeometry>
        </mxCell>
        <mxCell id="I_AKY_xcxnq37AstKkpZ-46" style="edgeStyle=orthogonalEdgeStyle;rounded=0;orthogonalLoop=1;jettySize=auto;html=1;exitX=1;exitY=0.25;exitDx=0;exitDy=0;entryX=1;entryY=0.5;entryDx=0;entryDy=0;fontFamily=Helvetica;fontSize=10;fontColor=#000000;" edge="1" parent="1">
          <mxGeometry relative="1" as="geometry">
            <mxPoint x="510" y="359" as="sourcePoint" />
            <mxPoint x="510" y="384" as="targetPoint" />
            <Array as="points">
              <mxPoint x="560" y="359" />
              <mxPoint x="560" y="384" />
            </Array>
          </mxGeometry>
        </mxCell>
        <mxCell id="I_AKY_xcxnq37AstKkpZ-47" value="waitForAllSlotsAndDeploy" style="edgeLabel;html=1;align=center;verticalAlign=middle;resizable=0;points=[];fontSize=10;fontFamily=Helvetica;fontColor=#000000;" vertex="1" connectable="0" parent="I_AKY_xcxnq37AstKkpZ-46">
          <mxGeometry x="0.056" y="-2" relative="1" as="geometry">
            <mxPoint as="offset" />
          </mxGeometry>
        </mxCell>
        <mxCell id="I_AKY_xcxnq37AstKkpZ-48" value="" style="endArrow=none;dashed=1;html=1;rounded=0;entryX=0.5;entryY=1;entryDx=0;entryDy=0;startArrow=none;" edge="1" parent="1" source="I_AKY_xcxnq37AstKkpZ-50">
          <mxGeometry width="50" height="50" relative="1" as="geometry">
            <mxPoint x="819.5" y="900" as="sourcePoint" />
            <mxPoint x="819.5" y="120" as="targetPoint" />
          </mxGeometry>
        </mxCell>
        <mxCell id="I_AKY_xcxnq37AstKkpZ-49" value="&lt;div&gt;DefaultExecution&lt;/div&gt;&lt;div&gt;VertexOperations&lt;/div&gt;" style="rounded=1;html=1;fontSize=14;whiteSpace=wrap;" vertex="1" parent="1">
          <mxGeometry x="760" y="80" width="120" height="40" as="geometry" />
        </mxCell>
        <mxCell id="I_AKY_xcxnq37AstKkpZ-50" value="" style="rounded=1;whiteSpace=wrap;html=1;" vertex="1" parent="1">
          <mxGeometry x="810" y="382" width="20" height="30" as="geometry" />
        </mxCell>
        <mxCell id="I_AKY_xcxnq37AstKkpZ-52" value="" style="endArrow=none;dashed=1;html=1;rounded=0;entryX=0.5;entryY=1;entryDx=0;entryDy=0;" edge="1" parent="1" target="I_AKY_xcxnq37AstKkpZ-50">
          <mxGeometry width="50" height="50" relative="1" as="geometry">
            <mxPoint x="820" y="900" as="sourcePoint" />
            <mxPoint x="859.5" y="120" as="targetPoint" />
          </mxGeometry>
        </mxCell>
      </root>
    </mxGraphModel>
  </diagram>
</mxfile>
